<svg width="120" height="59" viewBox="0 0 120 59" fill="none" xmlns="http://www.w3.org/2000/svg">
<path d="M120 0.999998C120 28.0783 105.457 27.5391 80.3478 27.5391C68.9625 27.5391 64.4149 27.0569 56.4638 34.2791C50.5831 39.6208 50.3593 57.3039 61.5652 57.8694C89.0753 59.2576 88.4022 49.4798 74.087 33.226C58.273 15.2706 41.9983 19.3649 24 27.5391" stroke="#535657" stroke-width="2" stroke-linecap="round" stroke-dasharray="6 6"/>
<circle cx="18" cy="30" r="18" fill="#2D3134"/>
<path d="M15.1 29.35C15.929 29.35 16.6 28.567 16.6 27.6C16.6 26.633 15.929 25.85 15.1 25.85C14.271 25.85 13.6 26.634 13.6 27.6C13.6 28.566 14.272 29.35 15.1 29.35ZM17.6 20C15.0539 20 12.6121 21.0114 10.8118 22.8118C9.01143 24.6121 8 27.0539 8 29.6C8.00007 30.8607 8.24844 32.109 8.73095 33.2737C9.21345 34.4384 9.92064 35.4967 10.8121 36.3881C11.7036 37.2795 12.762 37.9866 13.9267 38.4689C15.0915 38.9513 16.3398 39.1996 17.6005 39.1995C18.8612 39.1994 20.1095 38.9511 21.2742 38.4686C22.4389 37.986 23.4972 37.2789 24.3886 36.3874C25.28 35.4959 25.9871 34.4376 26.4694 33.2728C26.9518 32.108 27.2001 30.8597 27.2 29.599C27.2 24.298 22.901 20 17.6 20ZM17.6 37.199C16.602 37.199 15.6137 37.0024 14.6916 36.6205C13.7695 36.2386 12.9317 35.6787 12.226 34.973C11.5203 34.2673 10.9605 33.4295 10.5785 32.5074C10.1966 31.5853 10 30.597 10 29.599C10 28.601 10.1966 27.6127 10.5785 26.6906C10.9605 25.7685 11.5203 24.9307 12.226 24.225C12.9317 23.5193 13.7695 22.9595 14.6916 22.5775C15.6137 22.1956 16.602 21.999 17.6 21.999C19.6156 21.999 21.5487 22.7997 22.974 24.225C24.3993 25.6503 25.2 27.5834 25.2 29.599C25.2 31.6146 24.3993 33.5477 22.974 34.973C21.5487 36.3983 19.6156 37.199 17.6 37.199ZM21.941 30.936C21.7645 30.847 21.5602 30.8306 21.3717 30.8904C21.1833 30.9502 21.0258 31.0815 20.933 31.256C20.899 31.321 20.064 32.849 17.601 32.849C15.15 32.849 14.31 31.336 14.268 31.257C14.1781 31.0794 14.0213 30.9449 13.8322 30.8829C13.6431 30.8209 13.4371 30.8366 13.2595 30.9265C13.0819 31.0164 12.9474 31.1732 12.8854 31.3623C12.8234 31.5514 12.8391 31.7574 12.929 31.935C12.979 32.034 14.177 34.349 17.601 34.349C21.026 34.349 22.222 32.033 22.271 31.934C22.3591 31.7578 22.3739 31.5539 22.312 31.3669C22.2502 31.1799 22.1168 31.0249 21.941 30.936ZM18.85 28.35H21.35C21.5489 28.35 21.7397 28.271 21.8803 28.1303C22.021 27.9897 22.1 27.7989 22.1 27.6C22.1 27.4011 22.021 27.2103 21.8803 27.0697C21.7397 26.929 21.5489 26.85 21.35 26.85H18.85C18.6511 26.85 18.4603 26.929 18.3197 27.0697C18.179 27.2103 18.1 27.4011 18.1 27.6C18.1 27.7989 18.179 27.9897 18.3197 28.1303C18.4603 28.271 18.6511 28.35 18.85 28.35Z" fill="#FAF8ED"/>
</svg>
