<svg width="295" height="87" viewBox="0 0 295 87" fill="none" xmlns="http://www.w3.org/2000/svg">
<path d="M1.67773 83.4638C16.9977 83.4638 51.7217 89.7219 63.862 77.5815C77.2678 64.1757 73.5258 42.3164 73.5258 24.8509C73.5258 3.52042 36.8956 -9.34917 49.9966 15.3972C54.3711 23.6601 64.0264 30.6874 70.5847 37.2457C76.3791 43.0402 82.7523 42.4421 87.8114 46.4893C114.166 67.5728 148.693 22.9602 173.735 22.9602C191.573 22.9602 202.772 22.8966 216.382 35.1449C227.231 44.9089 246.128 44.4313 258.818 38.0861" stroke="#535657" stroke-width="2" stroke-linecap="round" stroke-dasharray="6 6"/>
<circle cx="277" cy="37" r="18" fill="#2D3134"/>
<path d="M277 27C274.879 27.0024 272.846 27.846 271.346 29.3458C269.846 30.8456 269.002 32.879 269 35C269 38.255 271.363 40.958 273.866 43.819C274.658 44.725 275.478 45.662 276.208 46.61C276.301 46.7312 276.421 46.8293 276.559 46.8968C276.696 46.9644 276.847 46.9995 277 46.9995C277.153 46.9995 277.304 46.9644 277.441 46.8968C277.579 46.8293 277.699 46.7312 277.792 46.61C278.522 45.662 279.342 44.725 280.134 43.819C282.637 40.958 285 38.255 285 35C284.998 32.879 284.154 30.8456 282.654 29.3458C281.154 27.846 279.121 27.0024 277 27ZM277 38.5C276.407 38.5 275.993 37.3296 275.5 37C275.5 36.5 275 36 274.5 35.5C274.273 34.9518 273.942 34.9967 274.058 34.4147C274.173 33.8328 274.58 33.4196 275 33C275.42 32.5804 276.418 33.6158 277 33.5C277.582 33.3842 277.952 32.7729 278.5 33C279.048 33.2271 279.165 32.8399 279.494 33.3333C279.824 33.8266 280 33.9067 280 34.5C280 35.2956 279.563 35.4374 279 36C278.437 36.5626 277.796 38.5 277 38.5Z" fill="#FAF8ED"/>
</svg>
