<svg width="161" height="88" viewBox="0 0 161 88" fill="none" xmlns="http://www.w3.org/2000/svg">
<path id="line1" d="M0.442383 29.3862C14.3302 29.3862 26.7794 15.6345 39.1869 12.0895C52.5988 8.25754 60.6765 1.98828 76.4093 1.98828C94.8991 1.98828 100.071 7.13297 100.071 25.6501C100.071 43.1914 99.8819 50.7937 90.1082 63.0109C86.5693 67.4346 75.1639 65.0956 75.1639 59.2748C75.1639 51.4873 74.1319 44.8621 79.5919 38.7956C85.0008 32.7856 88.9478 29.3862 97.5804 29.3862C105.891 29.3862 106.534 34.4653 111.971 39.9025C119.866 47.7972 123.515 58.9187 131.897 67.3004C139.252 74.6551 149.343 86.6727 159.848 86.6727" stroke="#2D3134" stroke-width="2" stroke-linecap="round" stroke-dasharray="4 4"/>
</svg>
