<svg width="37" height="26" viewBox="0 0 37 26" fill="none" xmlns="http://www.w3.org/2000/svg">
<rect x="1.5" y="1.07776" width="34" height="23" rx="4" stroke="white" stroke-width="2"/>
<mask id="path-2-inside-1_171_1899" fill="white">
<path d="M0.5 5.07776C0.5 2.31633 3.0184 0.0777588 6.125 0.0777588L18.5 11.0778L30.875 0.0777588C33.9816 0.0777588 36.5 2.31634 36.5 5.07776V20.0778C36.5 22.8392 33.9816 25.0778 30.875 25.0778H6.125C3.0184 25.0778 0.5 22.8392 0.5 20.0778V5.07776Z"/>
</mask>
<path d="M30.875 0.0777588V-1.92224H30.1146L29.5463 -1.41706L30.875 0.0777588ZM6.125 0.0777588L7.45373 -1.41706L6.8854 -1.92224H6.125V0.0777588ZM18.5 11.0778L17.1713 12.5726C17.929 13.2462 19.071 13.2462 19.8287 12.5726L18.5 11.0778ZM34.5 5.07776V20.0778H38.5V5.07776H34.5ZM30.875 23.0778H6.125V27.0778H30.875V23.0778ZM2.5 20.0778V5.07776H-1.5V20.0778H2.5ZM6.125 23.0778C3.89501 23.0778 2.5 21.5197 2.5 20.0778H-1.5C-1.5 24.1587 2.14179 27.0778 6.125 27.0778V23.0778ZM34.5 20.0778C34.5 21.5197 33.105 23.0778 30.875 23.0778V27.0778C34.8582 27.0778 38.5 24.1587 38.5 20.0778H34.5ZM30.875 2.07776C33.105 2.07776 34.5 3.63585 34.5 5.07776H38.5C38.5 0.996819 34.8582 -1.92224 30.875 -1.92224V2.07776ZM6.125 -1.92224C2.14179 -1.92224 -1.5 0.996818 -1.5 5.07776H2.5C2.5 3.63585 3.89501 2.07776 6.125 2.07776V-1.92224ZM4.79627 1.57258L17.1713 12.5726L19.8287 9.58294L7.45373 -1.41706L4.79627 1.57258ZM19.8287 12.5726L32.2037 1.57258L29.5463 -1.41706L17.1713 9.58294L19.8287 12.5726Z" fill="white" mask="url(#path-2-inside-1_171_1899)"/>
</svg>
