<svg xmlns="http://www.w3.org/2000/svg" viewBox="0 0 2464.64 700.21"><defs><style>.cls-1{fill:#f26b25;}.cls-2{fill:#547ebe;}.cls-2,.cls-3{fill-rule:evenodd;}.cls-3{fill:#2a7de1;}.cls-4{fill:#808284;}</style></defs><g id="Layer_2" data-name="Layer 2"><g id="Layer_1-2" data-name="Layer 1"><circle class="cls-1" cx="1156.86" cy="447.1" r="56.81" transform="translate(-56.68 191.08) rotate(-9.22)"/><path class="cls-1" d="M1572.51,211.42,1506,278.24a92.52,92.52,0,0,0-33.26-43.88,81.51,81.51,0,0,0-23.27-11.64,85.54,85.54,0,0,0-25.92-4,83.26,83.26,0,0,0-35.24,7.65,87.34,87.34,0,0,0-28.6,21.61,102.39,102.39,0,0,0-18.94,32.58q-7,18.94-7,41.88a87.59,87.59,0,0,0,7,34.91A93.32,93.32,0,0,0,1359.74,386a89.14,89.14,0,0,0,63.84,26.26,89.37,89.37,0,0,0,25.6-3.66,93.24,93.24,0,0,0,22.94-10.3,88.39,88.39,0,0,0,33.24-38.56l66.48,66.82A184.63,184.63,0,0,1,1507,483a168.68,168.68,0,0,1-40.21,15,174.82,174.82,0,0,1-43.22,5.32,181.1,181.1,0,0,1-70.81-14,188.47,188.47,0,0,1-57.85-38.9A184.33,184.33,0,0,1,1256,392.93a175,175,0,0,1-14.3-70.48q0-40.89,14.3-76.46t38.89-61.83a186.18,186.18,0,0,1,57.85-41.89,175.21,175.21,0,0,1,191.15,33.25A161.74,161.74,0,0,1,1572.51,211.42Z"/><path class="cls-1" d="M1955.8,315.47q0,39.9-14.29,74.47a188.33,188.33,0,0,1-38.89,59.5A185,185,0,0,1,1844.77,489a182.47,182.47,0,0,1-141.62,0,190.1,190.1,0,0,1-57.83-39.56,188.36,188.36,0,0,1-38.9-59.5q-14.3-34.57-14.3-74.47,0-40.56,14.3-75.13t38.9-59.51a182.58,182.58,0,0,1,57.83-39.55A177.36,177.36,0,0,1,1774,127q37.89,0,70.8,13.63a167.89,167.89,0,0,1,57.85,38.23q24.6,24.6,38.89,59.51Q1955.8,272.91,1955.8,315.47Zm-91.41,0q0-21.95-7.31-39.56a90,90,0,0,0-19.29-30.58,80.68,80.68,0,0,0-28.92-19.62,87.75,87.75,0,0,0-34.9-7,90.17,90.17,0,0,0-35.25,7,81.65,81.65,0,0,0-28.59,19.62,92.74,92.74,0,0,0-18.94,30.58q-7,17.63-7,39.56a102.92,102.92,0,0,0,7,38.23,97.67,97.67,0,0,0,18.94,30.59,94.6,94.6,0,0,0,28.59,20.61,86.64,86.64,0,0,0,35.25,7.31,87.75,87.75,0,0,0,34.9-7,86.71,86.71,0,0,0,28.92-19.61A90.16,90.16,0,0,0,1857.08,355,104.2,104.2,0,0,0,1864.39,315.47Z"/><path class="cls-1" d="M2458.78,496.65h-90.42V270.59a45.32,45.32,0,0,0-63.16-41.88,43.93,43.93,0,0,0-14.3,9.64,51,51,0,0,0-9.64,14.62,47,47,0,0,0-3.33,17.62V496.65h-90.74V270.59A45.33,45.33,0,0,0,2124,228.71a43.89,43.89,0,0,0-14.29,9.64,50.86,50.86,0,0,0-9.65,14.62,47.14,47.14,0,0,0-3.32,17.62V496.65H2006v-356h21.93l24.61,27.26a143.82,143.82,0,0,1,41.55-24.6,129.42,129.42,0,0,1,47.54-9,131.26,131.26,0,0,1,48.53,9.31q23.94,9.32,41.89,32.25a92,92,0,0,1,19-19.28,102.56,102.56,0,0,1,46.88-19.95,137.5,137.5,0,0,1,24.93-2.33,131.8,131.8,0,0,1,52.86,10.64,135.77,135.77,0,0,1,83.1,125.66Z"/><path class="cls-2" d="M203.45,497.66a156.32,156.32,0,0,1-61.83-12.3,167.09,167.09,0,0,1-50.86-34.24,167.29,167.29,0,0,1-34.25-50.87,156.32,156.32,0,0,1-12.3-61.83V232.71H0V142.28H44.21V0h90.43V142.28H272.27v90.43H134.64V338.42A67.41,67.41,0,0,0,154.58,387a72.86,72.86,0,0,0,21.94,15,68.83,68.83,0,0,0,26.93,5.32h68.82v90.42Zm871-181.18q0,39.9-14.3,74.47a188.33,188.33,0,0,1-38.89,59.5A185.15,185.15,0,0,1,963.4,490a182.47,182.47,0,0,1-141.62,0,190.33,190.33,0,0,1-57.84-39.56A188.16,188.16,0,0,1,725.05,391q-14.31-34.57-14.3-74.47,0-40.56,14.3-75.13t38.89-59.51a182.82,182.82,0,0,1,57.84-39.56A177.37,177.37,0,0,1,892.59,128q37.9,0,70.81,13.63a167.89,167.89,0,0,1,57.85,38.23q24.6,24.6,38.89,59.5Q1074.44,273.92,1074.44,316.48Zm-91.42,0q0-21.94-7.32-39.56a89.84,89.84,0,0,0-19.28-30.58,80.64,80.64,0,0,0-28.92-19.62,87.76,87.76,0,0,0-34.91-7,90.19,90.19,0,0,0-35.24,7,81.3,81.3,0,0,0-28.58,19.62,92.6,92.6,0,0,0-18.95,30.58q-7,17.63-7,39.56a102.76,102.76,0,0,0,7,38.23,97.35,97.35,0,0,0,18.95,30.58,94.17,94.17,0,0,0,28.58,20.62,86.67,86.67,0,0,0,35.24,7.31,89,89,0,0,0,63.83-26.6A89.84,89.84,0,0,0,975.7,356,103.82,103.82,0,0,0,983,316.48ZM665.54,392.94q14.3-34.57,14.29-76.46,0-40.89-14.29-75.13a187.36,187.36,0,0,0-38.9-59.84,173.79,173.79,0,0,0-57.84-39.23Q535.89,128,498,128a125.18,125.18,0,0,0-25.27,2.66,142.39,142.39,0,0,0-25.26,7,110.28,110.28,0,0,0-22.61,12,84,84,0,0,0-17.62,16.62V0H316.15V316.48q0,41.22,14.29,75.8a184.42,184.42,0,0,0,38.9,59.17A179.79,179.79,0,0,0,498,504.31q37.89,0,70.81-13.63a174.5,174.5,0,0,0,57.84-38.23Q651.24,427.51,665.54,392.94ZM581.1,278.25a103.62,103.62,0,0,1,0,76.46,94.47,94.47,0,0,1-19.28,30.58,93,93,0,0,1-28.92,20.62A84.35,84.35,0,0,1,498,413.22a86.63,86.63,0,0,1-35.24-7.31,93.68,93.68,0,0,1-47.87-51.2,103,103,0,0,1-7-38.23,95.06,95.06,0,0,1,7-35.9,98.41,98.41,0,0,1,19.28-30.92,93.7,93.7,0,0,1,28.59-21.61A77.77,77.77,0,0,1,498,219.74a84.35,84.35,0,0,1,34.91,7.31,88.77,88.77,0,0,1,28.92,20.28A93.83,93.83,0,0,1,581.1,278.25Z"/><path class="cls-3" d="M203.45,497.66a156.32,156.32,0,0,1-61.83-12.3,167.09,167.09,0,0,1-50.86-34.24,167.29,167.29,0,0,1-34.25-50.87,156.32,156.32,0,0,1-12.3-61.83V232.71H0V142.28H44.21V0h90.43V142.28H272.27v90.43H134.64V338.42A67.41,67.41,0,0,0,154.58,387a72.86,72.86,0,0,0,21.94,15,68.83,68.83,0,0,0,26.93,5.32h68.82v90.42Zm871-181.18q0,39.9-14.3,74.47a188.33,188.33,0,0,1-38.89,59.5A185.15,185.15,0,0,1,963.4,490a182.47,182.47,0,0,1-141.62,0,190.33,190.33,0,0,1-57.84-39.56A188.16,188.16,0,0,1,725.05,391q-14.31-34.57-14.3-74.47,0-40.56,14.3-75.13t38.89-59.51a182.82,182.82,0,0,1,57.84-39.56A177.37,177.37,0,0,1,892.59,128q37.9,0,70.81,13.63a167.89,167.89,0,0,1,57.85,38.23q24.6,24.6,38.89,59.5Q1074.44,273.92,1074.44,316.48Zm-91.42,0q0-21.94-7.32-39.56a89.84,89.84,0,0,0-19.28-30.58,80.64,80.64,0,0,0-28.92-19.62,87.76,87.76,0,0,0-34.91-7,90.19,90.19,0,0,0-35.24,7,81.3,81.3,0,0,0-28.58,19.62,92.6,92.6,0,0,0-18.95,30.58q-7,17.63-7,39.56a102.76,102.76,0,0,0,7,38.23,97.35,97.35,0,0,0,18.95,30.58,94.17,94.17,0,0,0,28.58,20.62,86.67,86.67,0,0,0,35.24,7.31,89,89,0,0,0,63.83-26.6A89.84,89.84,0,0,0,975.7,356,103.82,103.82,0,0,0,983,316.48ZM665.54,392.94q14.3-34.57,14.29-76.46,0-40.89-14.29-75.13a187.36,187.36,0,0,0-38.9-59.84,173.79,173.79,0,0,0-57.84-39.23Q535.89,128,498,128a125.18,125.18,0,0,0-25.27,2.66,142.39,142.39,0,0,0-25.26,7,110.28,110.28,0,0,0-22.61,12,84,84,0,0,0-17.62,16.62V0H316.15V316.48q0,41.22,14.29,75.8a184.42,184.42,0,0,0,38.9,59.17A179.79,179.79,0,0,0,498,504.31q37.89,0,70.81-13.63a174.5,174.5,0,0,0,57.84-38.23Q651.24,427.51,665.54,392.94ZM581.1,278.25a103.62,103.62,0,0,1,0,76.46,94.47,94.47,0,0,1-19.28,30.58,93,93,0,0,1-28.92,20.62A84.35,84.35,0,0,1,498,413.22a86.63,86.63,0,0,1-35.24-7.31,93.68,93.68,0,0,1-47.87-51.2,103,103,0,0,1-7-38.23,95.06,95.06,0,0,1,7-35.9,98.41,98.41,0,0,1,19.28-30.92,93.7,93.7,0,0,1,28.59-21.61A77.77,77.77,0,0,1,498,219.74a84.35,84.35,0,0,1,34.91,7.31,88.77,88.77,0,0,1,28.92,20.28A93.83,93.83,0,0,1,581.1,278.25Z"/><path class="cls-4" d="M954.77,609.73h-35V593.14h89.58v16.59h-35v89h-19.6Z"/><path class="cls-4" d="M1093.19,698.7l-21.56-30.91a40.31,40.31,0,0,1-4.07.15h-23.83V698.7h-19.6V593.14h43.43q13.73,0,23.9,4.53a34.71,34.71,0,0,1,15.61,13q5.43,8.45,5.43,20.05,0,11.91-5.81,20.51A34.56,34.56,0,0,1,1090,664l24.28,34.68Zm-7.08-83.54q-6.64-5.43-19.46-5.43h-22.92V651.8h22.92q12.82,0,19.46-5.5t6.63-15.61Q1092.74,620.6,1086.11,615.16Z"/><path class="cls-4" d="M1202.82,674.27H1150l-10.4,24.43h-20.21l47.5-105.56h19.3l47.65,105.56h-20.51Zm-6.49-15.38-19.9-46.14-19.75,46.14Z"/><path class="cls-4" d="M1338.23,593.14l-46,105.56h-19.3L1226.8,593.14h21.26l35.13,81.43,35.44-81.43Z"/><path class="cls-4" d="M1428.56,682.26V698.7h-79.17V593.14h77v16.44H1369V637h51v16.13h-51v29.1Z"/><path class="cls-4" d="M1450.42,593.14H1470v89h55.19V698.7h-74.79Z"/><path class="cls-4" d="M1591.48,696.74q-11.38-3.47-18-9.2l6.79-15.23a53.39,53.39,0,0,0,15.91,8.37,57.85,57.85,0,0,0,18.92,3.24q11.76,0,17.57-3.77t5.81-9.95a9.63,9.63,0,0,0-3.25-7.46,22.55,22.55,0,0,0-8.21-4.6q-5-1.67-13.57-3.77a157.53,157.53,0,0,1-19.53-5.73,32.06,32.06,0,0,1-12.82-9q-5.36-6.1-5.35-16.51a28.16,28.16,0,0,1,4.75-15.91q4.74-7.15,14.32-11.38t23.45-4.22a75.67,75.67,0,0,1,19,2.41,52.58,52.58,0,0,1,16.14,6.94l-6.19,15.23a60.88,60.88,0,0,0-14.47-6.19,54.51,54.51,0,0,0-14.63-2.11q-11.61,0-17.27,3.92a12.11,12.11,0,0,0-5.65,10.41,9.42,9.42,0,0,0,3.24,7.39,23.46,23.46,0,0,0,8.22,4.52q5,1.67,13.57,3.77a143.18,143.18,0,0,1,19.3,5.65,33,33,0,0,1,12.89,9q5.36,6,5.36,16.28a27.9,27.9,0,0,1-4.75,15.84q-4.76,7.08-14.4,11.31t-23.53,4.22A80.62,80.62,0,0,1,1591.48,696.74Z"/><path class="cls-4" d="M1677.21,593.14h19.6V698.7h-19.6Z"/><path class="cls-4" d="M1822.27,698.7l-.15-70-34.68,57.91h-8.75l-34.68-57V698.7h-18.7V593.14h16.13l41.92,70,41.17-70h16.14l.15,105.56Z"/><path class="cls-4" d="M1936.64,597.67a34.71,34.71,0,0,1,15.61,13q5.43,8.45,5.43,20.05a36.37,36.37,0,0,1-5.43,20,34.53,34.53,0,0,1-15.61,13q-10.17,4.53-23.9,4.53h-23.82V698.7h-19.61V593.14h43.43Q1926.47,593.14,1936.64,597.67Zm-5.35,48.55q6.63-5.43,6.64-15.53t-6.64-15.53q-6.63-5.43-19.45-5.43h-22.92v41.92h22.92Q1924.65,651.65,1931.29,646.22Z"/><path class="cls-4" d="M1977.28,593.14h19.61v89h55.19V698.7h-74.8Z"/><path class="cls-4" d="M2067.61,593.14h19.6V698.7h-19.6Z"/><path class="cls-4" d="M2135.31,609.58V641.7h51v16.59h-51V698.7h-19.6V593.14h77.05v16.44Z"/><path class="cls-4" d="M2211.76,593.14h19.61V698.7h-19.61Z"/><path class="cls-4" d="M2339,682.26V698.7h-79.17V593.14h77.06v16.44h-57.45V637h51v16.13h-51v29.1Z"/><path class="cls-4" d="M2360.89,593.14H2407q16.88,0,30,6.56a48.56,48.56,0,0,1,20.36,18.55q7.24,12,7.24,27.67t-7.24,27.67A48.5,48.5,0,0,1,2437,692.14q-13.11,6.55-30,6.56h-46.15Zm45.24,89a44.73,44.73,0,0,0,20.43-4.45A31.82,31.82,0,0,0,2440.14,665a40.68,40.68,0,0,0,0-38.15,31.9,31.9,0,0,0-13.58-12.67,44.86,44.86,0,0,0-20.43-4.45H2380.5v72.38Z"/></g></g></svg>